<mxfile host="Electron" modified="2023-08-21T10:15:27.888Z" agent="Mozilla/5.0 (Macintosh; Intel Mac OS X 10_15_7) AppleWebKit/537.36 (KHTML, like Gecko) draw.io/21.6.8 Chrome/114.0.5735.289 Electron/25.5.0 Safari/537.36" etag="cqZF-yTxRI4q95krNvWI" version="21.6.8" type="device" pages="2">
  <diagram name="Workflow" id="oX2JcFdohHe5glJg_26I">
    <mxGraphModel dx="3779" dy="1940" grid="1" gridSize="10" guides="1" tooltips="1" connect="1" arrows="1" fold="1" page="1" pageScale="1" pageWidth="1169" pageHeight="827" math="0" shadow="0">
      <root>
        <mxCell id="0" />
        <mxCell id="1" parent="0" />
        <mxCell id="E5Igh1rfIVBk4vipuDSx-92" value="" style="rounded=0;whiteSpace=wrap;html=1;fillColor=none;shadow=0;glass=0;strokeColor=default;" parent="1" vertex="1">
          <mxGeometry x="-220" y="240" width="1540" height="760" as="geometry" />
        </mxCell>
        <mxCell id="E5Igh1rfIVBk4vipuDSx-98" value="" style="rounded=1;whiteSpace=wrap;html=1;fillColor=#b1ddf0;strokeColor=#10739e;" parent="1" vertex="1">
          <mxGeometry x="-120" y="260" width="320" height="350" as="geometry" />
        </mxCell>
        <mxCell id="E5Igh1rfIVBk4vipuDSx-90" value="" style="rounded=0;whiteSpace=wrap;html=1;fillColor=none;" parent="1" vertex="1">
          <mxGeometry x="-220" y="40" width="1540" height="160" as="geometry" />
        </mxCell>
        <mxCell id="E5Igh1rfIVBk4vipuDSx-27" style="edgeStyle=orthogonalEdgeStyle;rounded=0;orthogonalLoop=1;jettySize=auto;html=1;entryX=0;entryY=0.5;entryDx=0;entryDy=0;entryPerimeter=0;" parent="1" source="E5Igh1rfIVBk4vipuDSx-1" target="E5Igh1rfIVBk4vipuDSx-4" edge="1">
          <mxGeometry relative="1" as="geometry" />
        </mxCell>
        <mxCell id="E5Igh1rfIVBk4vipuDSx-30" value="1.1 Discover &amp;amp; Subscribe&lt;br&gt;to SaaS product" style="edgeLabel;html=1;align=center;verticalAlign=middle;resizable=0;points=[];" parent="E5Igh1rfIVBk4vipuDSx-27" vertex="1" connectable="0">
          <mxGeometry x="-0.095" y="-1" relative="1" as="geometry">
            <mxPoint as="offset" />
          </mxGeometry>
        </mxCell>
        <mxCell id="E5Igh1rfIVBk4vipuDSx-1" value="" style="verticalLabelPosition=bottom;html=1;verticalAlign=top;align=center;strokeColor=none;fillColor=#00BEF2;shape=mxgraph.azure.user;" parent="1" vertex="1">
          <mxGeometry x="-350" y="94" width="47.5" height="50" as="geometry" />
        </mxCell>
        <mxCell id="E5Igh1rfIVBk4vipuDSx-2" value="AWS Marketplace&lt;br&gt;Entitlement API Service" style="sketch=0;points=[[0,0,0],[0.25,0,0],[0.5,0,0],[0.75,0,0],[1,0,0],[0,1,0],[0.25,1,0],[0.5,1,0],[0.75,1,0],[1,1,0],[0,0.25,0],[0,0.5,0],[0,0.75,0],[1,0.25,0],[1,0.5,0],[1,0.75,0]];gradientDirection=north;outlineConnect=0;fontColor=#232F3E;gradientColor=#505863;fillColor=#1E262E;strokeColor=#ffffff;dashed=0;verticalLabelPosition=bottom;verticalAlign=top;align=center;html=1;fontSize=12;fontStyle=0;aspect=fixed;shape=mxgraph.aws4.resourceIcon;resIcon=mxgraph.aws4.marketplace;" parent="1" vertex="1">
          <mxGeometry x="720" y="80" width="78" height="78" as="geometry" />
        </mxCell>
        <mxCell id="E5Igh1rfIVBk4vipuDSx-42" style="edgeStyle=orthogonalEdgeStyle;rounded=0;orthogonalLoop=1;jettySize=auto;html=1;entryX=0.5;entryY=0;entryDx=0;entryDy=0;entryPerimeter=0;" parent="1" source="E5Igh1rfIVBk4vipuDSx-3" target="E5Igh1rfIVBk4vipuDSx-9" edge="1">
          <mxGeometry relative="1" as="geometry" />
        </mxCell>
        <mxCell id="E5Igh1rfIVBk4vipuDSx-43" value="1.5 ResolveCustomer" style="edgeLabel;html=1;align=center;verticalAlign=middle;resizable=0;points=[];" parent="E5Igh1rfIVBk4vipuDSx-42" vertex="1" connectable="0">
          <mxGeometry x="-0.0095" y="1" relative="1" as="geometry">
            <mxPoint x="-1" y="1" as="offset" />
          </mxGeometry>
        </mxCell>
        <mxCell id="E5Igh1rfIVBk4vipuDSx-3" value="AWS Marketplace&lt;br&gt;Metering API Service" style="sketch=0;points=[[0,0,0],[0.25,0,0],[0.5,0,0],[0.75,0,0],[1,0,0],[0,1,0],[0.25,1,0],[0.5,1,0],[0.75,1,0],[1,1,0],[0,0.25,0],[0,0.5,0],[0,0.75,0],[1,0.25,0],[1,0.5,0],[1,0.75,0]];gradientDirection=north;outlineConnect=0;fontColor=#232F3E;gradientColor=#505863;fillColor=#1E262E;strokeColor=#ffffff;dashed=0;verticalLabelPosition=bottom;verticalAlign=top;align=center;html=1;fontSize=12;fontStyle=0;aspect=fixed;shape=mxgraph.aws4.resourceIcon;resIcon=mxgraph.aws4.marketplace;" parent="1" vertex="1">
          <mxGeometry x="400" y="80" width="78" height="78" as="geometry" />
        </mxCell>
        <mxCell id="E5Igh1rfIVBk4vipuDSx-28" style="edgeStyle=orthogonalEdgeStyle;rounded=0;orthogonalLoop=1;jettySize=auto;html=1;exitX=0.5;exitY=1;exitDx=0;exitDy=0;exitPerimeter=0;entryX=0.5;entryY=0;entryDx=0;entryDy=0;entryPerimeter=0;" parent="1" source="E5Igh1rfIVBk4vipuDSx-4" target="E5Igh1rfIVBk4vipuDSx-13" edge="1">
          <mxGeometry relative="1" as="geometry" />
        </mxCell>
        <mxCell id="E5Igh1rfIVBk4vipuDSx-31" value="1.2 Redirect to landing page" style="edgeLabel;html=1;align=center;verticalAlign=middle;resizable=0;points=[];" parent="E5Igh1rfIVBk4vipuDSx-28" vertex="1" connectable="0">
          <mxGeometry x="-0.0509" relative="1" as="geometry">
            <mxPoint y="4" as="offset" />
          </mxGeometry>
        </mxCell>
        <mxCell id="E5Igh1rfIVBk4vipuDSx-4" value="AWS Marketplace" style="sketch=0;points=[[0,0,0],[0.25,0,0],[0.5,0,0],[0.75,0,0],[1,0,0],[0,1,0],[0.25,1,0],[0.5,1,0],[0.75,1,0],[1,1,0],[0,0.25,0],[0,0.5,0],[0,0.75,0],[1,0.25,0],[1,0.5,0],[1,0.75,0]];gradientDirection=north;outlineConnect=0;fontColor=#232F3E;gradientColor=#505863;fillColor=#1E262E;strokeColor=#ffffff;dashed=0;verticalLabelPosition=bottom;verticalAlign=top;align=center;html=1;fontSize=12;fontStyle=0;aspect=fixed;shape=mxgraph.aws4.resourceIcon;resIcon=mxgraph.aws4.marketplace;" parent="1" vertex="1">
          <mxGeometry x="80" y="80" width="78" height="78" as="geometry" />
        </mxCell>
        <mxCell id="E5Igh1rfIVBk4vipuDSx-58" style="edgeStyle=orthogonalEdgeStyle;rounded=0;orthogonalLoop=1;jettySize=auto;html=1;fillColor=#f0a30a;strokeColor=#BD7000;" parent="1" source="E5Igh1rfIVBk4vipuDSx-5" target="E5Igh1rfIVBk4vipuDSx-8" edge="1">
          <mxGeometry relative="1" as="geometry" />
        </mxCell>
        <mxCell id="E5Igh1rfIVBk4vipuDSx-5" value="Amazon SNS&lt;br&gt;Subscription Entitlement" style="sketch=0;points=[[0,0,0],[0.25,0,0],[0.5,0,0],[0.75,0,0],[1,0,0],[0,1,0],[0.25,1,0],[0.5,1,0],[0.75,1,0],[1,1,0],[0,0.25,0],[0,0.5,0],[0,0.75,0],[1,0.25,0],[1,0.5,0],[1,0.75,0]];outlineConnect=0;fontColor=#232F3E;gradientColor=#FF4F8B;gradientDirection=north;fillColor=#BC1356;strokeColor=#ffffff;dashed=0;verticalLabelPosition=bottom;verticalAlign=top;align=center;html=1;fontSize=12;fontStyle=0;aspect=fixed;shape=mxgraph.aws4.resourceIcon;resIcon=mxgraph.aws4.sns;" parent="1" vertex="1">
          <mxGeometry x="880" y="80" width="78" height="78" as="geometry" />
        </mxCell>
        <mxCell id="E5Igh1rfIVBk4vipuDSx-52" style="edgeStyle=orthogonalEdgeStyle;rounded=0;orthogonalLoop=1;jettySize=auto;html=1;fillColor=#6a00ff;strokeColor=#3700CC;entryX=0;entryY=0.25;entryDx=0;entryDy=0;entryPerimeter=0;exitX=0.5;exitY=1;exitDx=0;exitDy=0;exitPerimeter=0;" parent="1" source="E5Igh1rfIVBk4vipuDSx-6" target="E5Igh1rfIVBk4vipuDSx-7" edge="1">
          <mxGeometry relative="1" as="geometry" />
        </mxCell>
        <mxCell id="E5Igh1rfIVBk4vipuDSx-89" value="Entitlement updates" style="edgeLabel;html=1;align=center;verticalAlign=middle;resizable=0;points=[];" parent="E5Igh1rfIVBk4vipuDSx-52" vertex="1" connectable="0">
          <mxGeometry x="0.1803" y="-8" relative="1" as="geometry">
            <mxPoint x="8" y="-47" as="offset" />
          </mxGeometry>
        </mxCell>
        <mxCell id="E5Igh1rfIVBk4vipuDSx-6" value="Amazon SNS&lt;br&gt;Marketplace Entitlement" style="sketch=0;points=[[0,0,0],[0.25,0,0],[0.5,0,0],[0.75,0,0],[1,0,0],[0,1,0],[0.25,1,0],[0.5,1,0],[0.75,1,0],[1,1,0],[0,0.25,0],[0,0.5,0],[0,0.75,0],[1,0.25,0],[1,0.5,0],[1,0.75,0]];outlineConnect=0;fontColor=#232F3E;gradientColor=#FF4F8B;gradientDirection=north;fillColor=#BC1356;strokeColor=#ffffff;dashed=0;verticalLabelPosition=bottom;verticalAlign=top;align=center;html=1;fontSize=12;fontStyle=0;aspect=fixed;shape=mxgraph.aws4.resourceIcon;resIcon=mxgraph.aws4.sns;" parent="1" vertex="1">
          <mxGeometry x="560" y="80" width="78" height="78" as="geometry" />
        </mxCell>
        <mxCell id="E5Igh1rfIVBk4vipuDSx-54" style="edgeStyle=orthogonalEdgeStyle;rounded=0;orthogonalLoop=1;jettySize=auto;html=1;entryX=0.5;entryY=0;entryDx=0;entryDy=0;entryPerimeter=0;" parent="1" source="E5Igh1rfIVBk4vipuDSx-7" target="E5Igh1rfIVBk4vipuDSx-16" edge="1">
          <mxGeometry relative="1" as="geometry" />
        </mxCell>
        <mxCell id="E5Igh1rfIVBk4vipuDSx-7" value="Amazon SQS&lt;br&gt;Entitlement" style="sketch=0;points=[[0,0,0],[0.25,0,0],[0.5,0,0],[0.75,0,0],[1,0,0],[0,1,0],[0.25,1,0],[0.5,1,0],[0.75,1,0],[1,1,0],[0,0.25,0],[0,0.5,0],[0,0.75,0],[1,0.25,0],[1,0.5,0],[1,0.75,0]];outlineConnect=0;fontColor=#232F3E;gradientColor=#FF4F8B;gradientDirection=north;fillColor=#BC1356;strokeColor=#ffffff;dashed=0;verticalLabelPosition=bottom;verticalAlign=top;align=center;html=1;fontSize=12;fontStyle=0;aspect=fixed;shape=mxgraph.aws4.resourceIcon;resIcon=mxgraph.aws4.sqs;" parent="1" vertex="1">
          <mxGeometry x="642" y="280" width="78" height="78" as="geometry" />
        </mxCell>
        <mxCell id="E5Igh1rfIVBk4vipuDSx-61" style="edgeStyle=orthogonalEdgeStyle;rounded=0;orthogonalLoop=1;jettySize=auto;html=1;entryX=0.5;entryY=0;entryDx=0;entryDy=0;entryPerimeter=0;fillColor=#f0a30a;strokeColor=#BD7000;" parent="1" source="E5Igh1rfIVBk4vipuDSx-8" target="E5Igh1rfIVBk4vipuDSx-18" edge="1">
          <mxGeometry relative="1" as="geometry" />
        </mxCell>
        <mxCell id="E5Igh1rfIVBk4vipuDSx-8" value="Amazon SQS &lt;br&gt;Subscription" style="sketch=0;points=[[0,0,0],[0.25,0,0],[0.5,0,0],[0.75,0,0],[1,0,0],[0,1,0],[0.25,1,0],[0.5,1,0],[0.75,1,0],[1,1,0],[0,0.25,0],[0,0.5,0],[0,0.75,0],[1,0.25,0],[1,0.5,0],[1,0.75,0]];outlineConnect=0;fontColor=#232F3E;gradientColor=#FF4F8B;gradientDirection=north;fillColor=#BC1356;strokeColor=#ffffff;dashed=0;verticalLabelPosition=bottom;verticalAlign=top;align=center;html=1;fontSize=12;fontStyle=0;aspect=fixed;shape=mxgraph.aws4.resourceIcon;resIcon=mxgraph.aws4.sqs;" parent="1" vertex="1">
          <mxGeometry x="880" y="280" width="78" height="78" as="geometry" />
        </mxCell>
        <mxCell id="E5Igh1rfIVBk4vipuDSx-44" style="edgeStyle=orthogonalEdgeStyle;rounded=0;orthogonalLoop=1;jettySize=auto;html=1;exitX=0.5;exitY=1;exitDx=0;exitDy=0;exitPerimeter=0;entryX=0.5;entryY=0;entryDx=0;entryDy=0;entryPerimeter=0;" parent="1" source="E5Igh1rfIVBk4vipuDSx-9" target="E5Igh1rfIVBk4vipuDSx-11" edge="1">
          <mxGeometry relative="1" as="geometry">
            <mxPoint x="719" y="680" as="targetPoint" />
          </mxGeometry>
        </mxCell>
        <mxCell id="E5Igh1rfIVBk4vipuDSx-45" value="Create subscriber record" style="edgeLabel;html=1;align=center;verticalAlign=middle;resizable=0;points=[];" parent="E5Igh1rfIVBk4vipuDSx-44" vertex="1" connectable="0">
          <mxGeometry x="0.3443" relative="1" as="geometry">
            <mxPoint y="-150" as="offset" />
          </mxGeometry>
        </mxCell>
        <mxCell id="E5Igh1rfIVBk4vipuDSx-51" style="edgeStyle=orthogonalEdgeStyle;rounded=0;orthogonalLoop=1;jettySize=auto;html=1;entryX=0;entryY=0.5;entryDx=0;entryDy=0;entryPerimeter=0;fillColor=#6a00ff;strokeColor=#3700CC;" parent="1" source="E5Igh1rfIVBk4vipuDSx-9" target="E5Igh1rfIVBk4vipuDSx-7" edge="1">
          <mxGeometry relative="1" as="geometry" />
        </mxCell>
        <mxCell id="E5Igh1rfIVBk4vipuDSx-9" value="AWS Lambda&lt;br&gt;register-new-subscriber.js" style="sketch=0;points=[[0,0,0],[0.25,0,0],[0.5,0,0],[0.75,0,0],[1,0,0],[0,1,0],[0.25,1,0],[0.5,1,0],[0.75,1,0],[1,1,0],[0,0.25,0],[0,0.5,0],[0,0.75,0],[1,0.25,0],[1,0.5,0],[1,0.75,0]];outlineConnect=0;fontColor=#232F3E;gradientColor=#F78E04;gradientDirection=north;fillColor=#D05C17;strokeColor=#ffffff;dashed=0;verticalLabelPosition=bottom;verticalAlign=top;align=center;html=1;fontSize=12;fontStyle=0;aspect=fixed;shape=mxgraph.aws4.resourceIcon;resIcon=mxgraph.aws4.lambda;" parent="1" vertex="1">
          <mxGeometry x="400" y="280" width="78" height="78" as="geometry" />
        </mxCell>
        <mxCell id="E5Igh1rfIVBk4vipuDSx-38" style="edgeStyle=orthogonalEdgeStyle;rounded=0;orthogonalLoop=1;jettySize=auto;html=1;exitX=0.5;exitY=1;exitDx=0;exitDy=0;exitPerimeter=0;entryX=1;entryY=0.5;entryDx=0;entryDy=0;entryPerimeter=0;startArrow=classic;startFill=1;" parent="1" source="E5Igh1rfIVBk4vipuDSx-10" target="E5Igh1rfIVBk4vipuDSx-14" edge="1">
          <mxGeometry relative="1" as="geometry" />
        </mxCell>
        <mxCell id="E5Igh1rfIVBk4vipuDSx-40" value="Redirect marketplace token&lt;br&gt;from POST to GET request" style="edgeLabel;html=1;align=center;verticalAlign=middle;resizable=0;points=[];" parent="E5Igh1rfIVBk4vipuDSx-38" vertex="1" connectable="0">
          <mxGeometry x="0.4404" y="-1" relative="1" as="geometry">
            <mxPoint x="44" y="-78" as="offset" />
          </mxGeometry>
        </mxCell>
        <mxCell id="E5Igh1rfIVBk4vipuDSx-46" style="edgeStyle=orthogonalEdgeStyle;rounded=0;orthogonalLoop=1;jettySize=auto;html=1;dashed=1;" parent="1" source="E5Igh1rfIVBk4vipuDSx-10" target="E5Igh1rfIVBk4vipuDSx-9" edge="1">
          <mxGeometry relative="1" as="geometry" />
        </mxCell>
        <mxCell id="E5Igh1rfIVBk4vipuDSx-10" value="Amazon API&lt;br&gt;Gateway" style="sketch=0;points=[[0,0,0],[0.25,0,0],[0.5,0,0],[0.75,0,0],[1,0,0],[0,1,0],[0.25,1,0],[0.5,1,0],[0.75,1,0],[1,1,0],[0,0.25,0],[0,0.5,0],[0,0.75,0],[1,0.25,0],[1,0.5,0],[1,0.75,0]];outlineConnect=0;fontColor=#232F3E;gradientColor=#FF4F8B;gradientDirection=north;fillColor=#BC1356;strokeColor=#ffffff;dashed=0;verticalLabelPosition=bottom;verticalAlign=top;align=center;html=1;fontSize=12;fontStyle=0;aspect=fixed;shape=mxgraph.aws4.resourceIcon;resIcon=mxgraph.aws4.api_gateway;" parent="1" vertex="1">
          <mxGeometry x="240" y="280" width="78" height="78" as="geometry" />
        </mxCell>
        <mxCell id="E5Igh1rfIVBk4vipuDSx-47" style="rounded=0;orthogonalLoop=1;jettySize=auto;html=1;entryX=1;entryY=0.5;entryDx=0;entryDy=0;entryPerimeter=0;dashed=1;dashPattern=8 8;startArrow=classic;startFill=1;exitX=0;exitY=0.5;exitDx=0;exitDy=0;exitPerimeter=0;" parent="1" source="E5Igh1rfIVBk4vipuDSx-11" target="E5Igh1rfIVBk4vipuDSx-15" edge="1">
          <mxGeometry relative="1" as="geometry">
            <mxPoint x="680" y="739" as="sourcePoint" />
          </mxGeometry>
        </mxCell>
        <mxCell id="E5Igh1rfIVBk4vipuDSx-48" value="Stream" style="edgeLabel;html=1;align=center;verticalAlign=middle;resizable=0;points=[];" parent="E5Igh1rfIVBk4vipuDSx-47" vertex="1" connectable="0">
          <mxGeometry x="0.122" y="-1" relative="1" as="geometry">
            <mxPoint x="1" y="6" as="offset" />
          </mxGeometry>
        </mxCell>
        <mxCell id="E5Igh1rfIVBk4vipuDSx-11" value="Amazon DynamoDb&lt;br&gt;AWSMarketplaceEntitlementRecords" style="sketch=0;points=[[0,0,0],[0.25,0,0],[0.5,0,0],[0.75,0,0],[1,0,0],[0,1,0],[0.25,1,0],[0.5,1,0],[0.75,1,0],[1,1,0],[0,0.25,0],[0,0.5,0],[0,0.75,0],[1,0.25,0],[1,0.5,0],[1,0.75,0]];outlineConnect=0;fontColor=#232F3E;gradientColor=#4D72F3;gradientDirection=north;fillColor=#3334B9;strokeColor=#ffffff;dashed=0;verticalLabelPosition=bottom;verticalAlign=top;align=center;html=1;fontSize=12;fontStyle=0;aspect=fixed;shape=mxgraph.aws4.resourceIcon;resIcon=mxgraph.aws4.dynamodb;" parent="1" vertex="1">
          <mxGeometry x="400" y="680" width="78" height="78" as="geometry" />
        </mxCell>
        <mxCell id="E5Igh1rfIVBk4vipuDSx-12" value="S3 Static HTML" style="sketch=0;points=[[0,0,0],[0.25,0,0],[0.5,0,0],[0.75,0,0],[1,0,0],[0,1,0],[0.25,1,0],[0.5,1,0],[0.75,1,0],[1,1,0],[0,0.25,0],[0,0.5,0],[0,0.75,0],[1,0.25,0],[1,0.5,0],[1,0.75,0]];outlineConnect=0;fontColor=#232F3E;gradientColor=#60A337;gradientDirection=north;fillColor=#277116;strokeColor=#ffffff;dashed=0;verticalLabelPosition=bottom;verticalAlign=top;align=center;html=1;fontSize=12;fontStyle=0;aspect=fixed;shape=mxgraph.aws4.resourceIcon;resIcon=mxgraph.aws4.s3;" parent="1" vertex="1">
          <mxGeometry x="-78" y="480" width="78" height="78" as="geometry" />
        </mxCell>
        <mxCell id="E5Igh1rfIVBk4vipuDSx-33" style="edgeStyle=orthogonalEdgeStyle;rounded=0;orthogonalLoop=1;jettySize=auto;html=1;entryX=0.5;entryY=0;entryDx=0;entryDy=0;entryPerimeter=0;exitX=0;exitY=0.75;exitDx=0;exitDy=0;exitPerimeter=0;" parent="1" source="E5Igh1rfIVBk4vipuDSx-13" target="E5Igh1rfIVBk4vipuDSx-12" edge="1">
          <mxGeometry relative="1" as="geometry" />
        </mxCell>
        <mxCell id="E5Igh1rfIVBk4vipuDSx-41" value="Origin path&lt;br style=&quot;border-color: var(--border-color);&quot;&gt;to S3 RegionalDomainName" style="edgeLabel;html=1;align=center;verticalAlign=middle;resizable=0;points=[];" parent="E5Igh1rfIVBk4vipuDSx-33" vertex="1" connectable="0">
          <mxGeometry x="0.4965" relative="1" as="geometry">
            <mxPoint y="-19" as="offset" />
          </mxGeometry>
        </mxCell>
        <mxCell id="E5Igh1rfIVBk4vipuDSx-37" style="edgeStyle=orthogonalEdgeStyle;rounded=0;orthogonalLoop=1;jettySize=auto;html=1;entryX=0;entryY=0.5;entryDx=0;entryDy=0;entryPerimeter=0;startArrow=classic;startFill=1;" parent="1" source="E5Igh1rfIVBk4vipuDSx-13" target="E5Igh1rfIVBk4vipuDSx-10" edge="1">
          <mxGeometry relative="1" as="geometry" />
        </mxCell>
        <mxCell id="E5Igh1rfIVBk4vipuDSx-13" value="Amazon Cloudfront" style="sketch=0;points=[[0,0,0],[0.25,0,0],[0.5,0,0],[0.75,0,0],[1,0,0],[0,1,0],[0.25,1,0],[0.5,1,0],[0.75,1,0],[1,1,0],[0,0.25,0],[0,0.5,0],[0,0.75,0],[1,0.25,0],[1,0.5,0],[1,0.75,0]];outlineConnect=0;fontColor=#232F3E;gradientColor=#945DF2;gradientDirection=north;fillColor=#5A30B5;strokeColor=#ffffff;dashed=0;verticalLabelPosition=bottom;verticalAlign=top;align=center;html=1;fontSize=12;fontStyle=0;aspect=fixed;shape=mxgraph.aws4.resourceIcon;resIcon=mxgraph.aws4.cloudfront;" parent="1" vertex="1">
          <mxGeometry x="80" y="280" width="78" height="78" as="geometry" />
        </mxCell>
        <mxCell id="E5Igh1rfIVBk4vipuDSx-14" value="AWS Lambda&lt;br&gt;redirect.js" style="sketch=0;points=[[0,0,0],[0.25,0,0],[0.5,0,0],[0.75,0,0],[1,0,0],[0,1,0],[0.25,1,0],[0.5,1,0],[0.75,1,0],[1,1,0],[0,0.25,0],[0,0.5,0],[0,0.75,0],[1,0.25,0],[1,0.5,0],[1,0.75,0]];outlineConnect=0;fontColor=#232F3E;gradientColor=#F78E04;gradientDirection=north;fillColor=#D05C17;strokeColor=#ffffff;dashed=0;verticalLabelPosition=bottom;verticalAlign=top;align=center;html=1;fontSize=12;fontStyle=0;aspect=fixed;shape=mxgraph.aws4.resourceIcon;resIcon=mxgraph.aws4.lambda;" parent="1" vertex="1">
          <mxGeometry x="80" y="480" width="78" height="78" as="geometry" />
        </mxCell>
        <mxCell id="E5Igh1rfIVBk4vipuDSx-49" style="edgeStyle=orthogonalEdgeStyle;rounded=0;orthogonalLoop=1;jettySize=auto;html=1;exitX=0.5;exitY=1;exitDx=0;exitDy=0;exitPerimeter=0;entryX=0.5;entryY=0;entryDx=0;entryDy=0;entryPerimeter=0;" parent="1" source="E5Igh1rfIVBk4vipuDSx-15" target="E5Igh1rfIVBk4vipuDSx-23" edge="1">
          <mxGeometry relative="1" as="geometry" />
        </mxCell>
        <mxCell id="E5Igh1rfIVBk4vipuDSx-50" value="Notify on change" style="edgeLabel;html=1;align=center;verticalAlign=middle;resizable=0;points=[];" parent="E5Igh1rfIVBk4vipuDSx-49" vertex="1" connectable="0">
          <mxGeometry x="0.0552" y="1" relative="1" as="geometry">
            <mxPoint as="offset" />
          </mxGeometry>
        </mxCell>
        <mxCell id="E5Igh1rfIVBk4vipuDSx-15" value="AWS Lambda&lt;br&gt;grant-revoke-access-to-product.js" style="sketch=0;points=[[0,0,0],[0.25,0,0],[0.5,0,0],[0.75,0,0],[1,0,0],[0,1,0],[0.25,1,0],[0.5,1,0],[0.75,1,0],[1,1,0],[0,0.25,0],[0,0.5,0],[0,0.75,0],[1,0.25,0],[1,0.5,0],[1,0.75,0]];outlineConnect=0;fontColor=#232F3E;gradientColor=#F78E04;gradientDirection=north;fillColor=#D05C17;strokeColor=#ffffff;dashed=0;verticalLabelPosition=bottom;verticalAlign=top;align=center;html=1;fontSize=12;fontStyle=0;aspect=fixed;shape=mxgraph.aws4.resourceIcon;resIcon=mxgraph.aws4.lambda;" parent="1" vertex="1">
          <mxGeometry x="80" y="680" width="78" height="78" as="geometry" />
        </mxCell>
        <mxCell id="E5Igh1rfIVBk4vipuDSx-53" style="edgeStyle=orthogonalEdgeStyle;rounded=0;orthogonalLoop=1;jettySize=auto;html=1;entryX=1;entryY=0.25;entryDx=0;entryDy=0;entryPerimeter=0;fillColor=#6a00ff;strokeColor=#3700CC;exitX=0.5;exitY=1;exitDx=0;exitDy=0;exitPerimeter=0;" parent="1" source="E5Igh1rfIVBk4vipuDSx-16" target="E5Igh1rfIVBk4vipuDSx-11" edge="1">
          <mxGeometry relative="1" as="geometry" />
        </mxCell>
        <mxCell id="E5Igh1rfIVBk4vipuDSx-55" style="edgeStyle=orthogonalEdgeStyle;rounded=0;orthogonalLoop=1;jettySize=auto;html=1;entryX=0.5;entryY=1;entryDx=0;entryDy=0;entryPerimeter=0;fillColor=#6a00ff;strokeColor=#3700CC;exitX=1;exitY=0.5;exitDx=0;exitDy=0;exitPerimeter=0;" parent="1" source="E5Igh1rfIVBk4vipuDSx-16" target="E5Igh1rfIVBk4vipuDSx-2" edge="1">
          <mxGeometry relative="1" as="geometry" />
        </mxCell>
        <mxCell id="E5Igh1rfIVBk4vipuDSx-16" value="AWS Lambda&lt;br&gt;entitlement-sqs.js" style="sketch=0;points=[[0,0,0],[0.25,0,0],[0.5,0,0],[0.75,0,0],[1,0,0],[0,1,0],[0.25,1,0],[0.5,1,0],[0.75,1,0],[1,1,0],[0,0.25,0],[0,0.5,0],[0,0.75,0],[1,0.25,0],[1,0.5,0],[1,0.75,0]];outlineConnect=0;fontColor=#232F3E;gradientColor=#F78E04;gradientDirection=north;fillColor=#D05C17;strokeColor=#ffffff;dashed=0;verticalLabelPosition=bottom;verticalAlign=top;align=center;html=1;fontSize=12;fontStyle=0;aspect=fixed;shape=mxgraph.aws4.resourceIcon;resIcon=mxgraph.aws4.lambda;" parent="1" vertex="1">
          <mxGeometry x="642" y="480" width="78" height="78" as="geometry" />
        </mxCell>
        <mxCell id="E5Igh1rfIVBk4vipuDSx-65" style="edgeStyle=orthogonalEdgeStyle;rounded=0;orthogonalLoop=1;jettySize=auto;html=1;exitX=0.5;exitY=0;exitDx=0;exitDy=0;exitPerimeter=0;entryX=0.5;entryY=0;entryDx=0;entryDy=0;entryPerimeter=0;fillColor=#f0a30a;strokeColor=#BD7000;" parent="1" source="E5Igh1rfIVBk4vipuDSx-17" target="E5Igh1rfIVBk4vipuDSx-3" edge="1">
          <mxGeometry relative="1" as="geometry">
            <Array as="points">
              <mxPoint x="1079" y="60" />
              <mxPoint x="439" y="60" />
            </Array>
          </mxGeometry>
        </mxCell>
        <mxCell id="E5Igh1rfIVBk4vipuDSx-17" value="AWS Lambda&lt;br&gt;metering-sqs.js" style="sketch=0;points=[[0,0,0],[0.25,0,0],[0.5,0,0],[0.75,0,0],[1,0,0],[0,1,0],[0.25,1,0],[0.5,1,0],[0.75,1,0],[1,1,0],[0,0.25,0],[0,0.5,0],[0,0.75,0],[1,0.25,0],[1,0.5,0],[1,0.75,0]];outlineConnect=0;fontColor=#232F3E;gradientColor=#F78E04;gradientDirection=north;fillColor=#D05C17;strokeColor=#ffffff;dashed=0;verticalLabelPosition=bottom;verticalAlign=top;align=center;html=1;fontSize=12;fontStyle=0;aspect=fixed;shape=mxgraph.aws4.resourceIcon;resIcon=mxgraph.aws4.lambda;" parent="1" vertex="1">
          <mxGeometry x="1040" y="280" width="78" height="78" as="geometry" />
        </mxCell>
        <mxCell id="E5Igh1rfIVBk4vipuDSx-62" style="edgeStyle=orthogonalEdgeStyle;rounded=0;orthogonalLoop=1;jettySize=auto;html=1;exitX=0.25;exitY=1;exitDx=0;exitDy=0;exitPerimeter=0;entryX=1;entryY=0.5;entryDx=0;entryDy=0;entryPerimeter=0;fillColor=#f0a30a;strokeColor=#BD7000;" parent="1" source="E5Igh1rfIVBk4vipuDSx-18" target="E5Igh1rfIVBk4vipuDSx-11" edge="1">
          <mxGeometry relative="1" as="geometry" />
        </mxCell>
        <mxCell id="E5Igh1rfIVBk4vipuDSx-63" style="edgeStyle=orthogonalEdgeStyle;rounded=0;orthogonalLoop=1;jettySize=auto;html=1;exitX=0.75;exitY=1;exitDx=0;exitDy=0;exitPerimeter=0;entryX=1;entryY=0.5;entryDx=0;entryDy=0;entryPerimeter=0;fillColor=#f0a30a;strokeColor=#BD7000;" parent="1" source="E5Igh1rfIVBk4vipuDSx-18" target="E5Igh1rfIVBk4vipuDSx-23" edge="1">
          <mxGeometry relative="1" as="geometry" />
        </mxCell>
        <mxCell id="E5Igh1rfIVBk4vipuDSx-64" value="On unsuccessful subscription" style="edgeLabel;html=1;align=center;verticalAlign=middle;resizable=0;points=[];" parent="E5Igh1rfIVBk4vipuDSx-63" vertex="1" connectable="0">
          <mxGeometry x="-0.564" y="-1" relative="1" as="geometry">
            <mxPoint x="2" y="68" as="offset" />
          </mxGeometry>
        </mxCell>
        <mxCell id="E5Igh1rfIVBk4vipuDSx-18" value="AWS Lambda&lt;br&gt;subscription-sqs.js" style="sketch=0;points=[[0,0,0],[0.25,0,0],[0.5,0,0],[0.75,0,0],[1,0,0],[0,1,0],[0.25,1,0],[0.5,1,0],[0.75,1,0],[1,1,0],[0,0.25,0],[0,0.5,0],[0,0.75,0],[1,0.25,0],[1,0.5,0],[1,0.75,0]];outlineConnect=0;fontColor=#232F3E;gradientColor=#F78E04;gradientDirection=north;fillColor=#D05C17;strokeColor=#ffffff;dashed=0;verticalLabelPosition=bottom;verticalAlign=top;align=center;html=1;fontSize=12;fontStyle=0;aspect=fixed;shape=mxgraph.aws4.resourceIcon;resIcon=mxgraph.aws4.lambda;" parent="1" vertex="1">
          <mxGeometry x="880" y="480" width="78" height="78" as="geometry" />
        </mxCell>
        <mxCell id="E5Igh1rfIVBk4vipuDSx-80" style="edgeStyle=orthogonalEdgeStyle;rounded=0;orthogonalLoop=1;jettySize=auto;html=1;entryX=1;entryY=0.5;entryDx=0;entryDy=0;entryPerimeter=0;fillColor=#f0a30a;strokeColor=#BD7000;" parent="1" source="E5Igh1rfIVBk4vipuDSx-19" target="E5Igh1rfIVBk4vipuDSx-17" edge="1">
          <mxGeometry relative="1" as="geometry" />
        </mxCell>
        <mxCell id="E5Igh1rfIVBk4vipuDSx-19" value="Amazon SQS&lt;br&gt;SA" style="sketch=0;points=[[0,0,0],[0.25,0,0],[0.5,0,0],[0.75,0,0],[1,0,0],[0,1,0],[0.25,1,0],[0.5,1,0],[0.75,1,0],[1,1,0],[0,0.25,0],[0,0.5,0],[0,0.75,0],[1,0.25,0],[1,0.5,0],[1,0.75,0]];outlineConnect=0;fontColor=#232F3E;gradientColor=#FF4F8B;gradientDirection=north;fillColor=#BC1356;strokeColor=#ffffff;dashed=0;verticalLabelPosition=bottom;verticalAlign=top;align=center;html=1;fontSize=12;fontStyle=0;aspect=fixed;shape=mxgraph.aws4.resourceIcon;resIcon=mxgraph.aws4.sqs;" parent="1" vertex="1">
          <mxGeometry x="1200" y="280" width="78" height="78" as="geometry" />
        </mxCell>
        <mxCell id="E5Igh1rfIVBk4vipuDSx-79" style="edgeStyle=orthogonalEdgeStyle;rounded=0;orthogonalLoop=1;jettySize=auto;html=1;entryX=0.5;entryY=1;entryDx=0;entryDy=0;entryPerimeter=0;fillColor=#f0a30a;strokeColor=#BD7000;" parent="1" source="E5Igh1rfIVBk4vipuDSx-20" target="E5Igh1rfIVBk4vipuDSx-19" edge="1">
          <mxGeometry relative="1" as="geometry" />
        </mxCell>
        <mxCell id="E5Igh1rfIVBk4vipuDSx-20" value="Amazon SNS&lt;br&gt;Subscriptions" style="sketch=0;points=[[0,0,0],[0.25,0,0],[0.5,0,0],[0.75,0,0],[1,0,0],[0,1,0],[0.25,1,0],[0.5,1,0],[0.75,1,0],[1,1,0],[0,0.25,0],[0,0.5,0],[0,0.75,0],[1,0.25,0],[1,0.5,0],[1,0.75,0]];outlineConnect=0;fontColor=#232F3E;gradientColor=#FF4F8B;gradientDirection=north;fillColor=#BC1356;strokeColor=#ffffff;dashed=0;verticalLabelPosition=bottom;verticalAlign=top;align=center;html=1;fontSize=12;fontStyle=0;aspect=fixed;shape=mxgraph.aws4.resourceIcon;resIcon=mxgraph.aws4.sns;" parent="1" vertex="1">
          <mxGeometry x="1200" y="480" width="78" height="78" as="geometry" />
        </mxCell>
        <mxCell id="E5Igh1rfIVBk4vipuDSx-78" style="edgeStyle=orthogonalEdgeStyle;rounded=0;orthogonalLoop=1;jettySize=auto;html=1;entryX=0;entryY=0.5;entryDx=0;entryDy=0;entryPerimeter=0;fillColor=#f0a30a;strokeColor=#BD7000;" parent="1" source="E5Igh1rfIVBk4vipuDSx-21" target="E5Igh1rfIVBk4vipuDSx-20" edge="1">
          <mxGeometry relative="1" as="geometry" />
        </mxCell>
        <mxCell id="E5Igh1rfIVBk4vipuDSx-21" value="AWS Lambda&lt;br&gt;metering-hourly-job.js" style="sketch=0;points=[[0,0,0],[0.25,0,0],[0.5,0,0],[0.75,0,0],[1,0,0],[0,1,0],[0.25,1,0],[0.5,1,0],[0.75,1,0],[1,1,0],[0,0.25,0],[0,0.5,0],[0,0.75,0],[1,0.25,0],[1,0.5,0],[1,0.75,0]];outlineConnect=0;fontColor=#232F3E;gradientColor=#F78E04;gradientDirection=north;fillColor=#D05C17;strokeColor=#ffffff;dashed=0;verticalLabelPosition=bottom;verticalAlign=top;align=center;html=1;fontSize=12;fontStyle=0;aspect=fixed;shape=mxgraph.aws4.resourceIcon;resIcon=mxgraph.aws4.lambda;" parent="1" vertex="1">
          <mxGeometry x="1040" y="480" width="78" height="78" as="geometry" />
        </mxCell>
        <mxCell id="E5Igh1rfIVBk4vipuDSx-77" style="edgeStyle=orthogonalEdgeStyle;rounded=0;orthogonalLoop=1;jettySize=auto;html=1;entryX=0.5;entryY=1;entryDx=0;entryDy=0;entryPerimeter=0;fillColor=#f0a30a;strokeColor=#BD7000;" parent="1" source="E5Igh1rfIVBk4vipuDSx-22" target="E5Igh1rfIVBk4vipuDSx-21" edge="1">
          <mxGeometry relative="1" as="geometry" />
        </mxCell>
        <mxCell id="E5Igh1rfIVBk4vipuDSx-22" value="Amazon DynamoDb&lt;br&gt;AWSMarketplaceMeteringRecords" style="sketch=0;points=[[0,0,0],[0.25,0,0],[0.5,0,0],[0.75,0,0],[1,0,0],[0,1,0],[0.25,1,0],[0.5,1,0],[0.75,1,0],[1,1,0],[0,0.25,0],[0,0.5,0],[0,0.75,0],[1,0.25,0],[1,0.5,0],[1,0.75,0]];outlineConnect=0;fontColor=#232F3E;gradientColor=#4D72F3;gradientDirection=north;fillColor=#3334B9;strokeColor=#ffffff;dashed=0;verticalLabelPosition=bottom;verticalAlign=top;align=center;html=1;fontSize=12;fontStyle=0;aspect=fixed;shape=mxgraph.aws4.resourceIcon;resIcon=mxgraph.aws4.dynamodb;" parent="1" vertex="1">
          <mxGeometry x="1040" y="680" width="78" height="78" as="geometry" />
        </mxCell>
        <mxCell id="E5Igh1rfIVBk4vipuDSx-26" value="" style="edgeStyle=orthogonalEdgeStyle;rounded=0;orthogonalLoop=1;jettySize=auto;html=1;" parent="1" source="E5Igh1rfIVBk4vipuDSx-23" target="E5Igh1rfIVBk4vipuDSx-24" edge="1">
          <mxGeometry relative="1" as="geometry" />
        </mxCell>
        <mxCell id="E5Igh1rfIVBk4vipuDSx-23" value="Amazon SNS" style="sketch=0;points=[[0,0,0],[0.25,0,0],[0.5,0,0],[0.75,0,0],[1,0,0],[0,1,0],[0.25,1,0],[0.5,1,0],[0.75,1,0],[1,1,0],[0,0.25,0],[0,0.5,0],[0,0.75,0],[1,0.25,0],[1,0.5,0],[1,0.75,0]];outlineConnect=0;fontColor=#232F3E;gradientColor=#FF4F8B;gradientDirection=north;fillColor=#BC1356;strokeColor=#ffffff;dashed=0;verticalLabelPosition=bottom;verticalAlign=top;align=center;html=1;fontSize=12;fontStyle=0;aspect=fixed;shape=mxgraph.aws4.resourceIcon;resIcon=mxgraph.aws4.sqs;" parent="1" vertex="1">
          <mxGeometry x="80" y="880" width="78" height="78" as="geometry" />
        </mxCell>
        <mxCell id="E5Igh1rfIVBk4vipuDSx-24" value="Support Email" style="sketch=0;points=[[0,0,0],[0.25,0,0],[0.5,0,0],[0.75,0,0],[1,0,0],[0,1,0],[0.25,1,0],[0.5,1,0],[0.75,1,0],[1,1,0],[0,0.25,0],[0,0.5,0],[0,0.75,0],[1,0.25,0],[1,0.5,0],[1,0.75,0]];outlineConnect=0;fontColor=#232F3E;gradientColor=#4D72F3;gradientDirection=north;fillColor=#3334B9;strokeColor=#ffffff;dashed=0;verticalLabelPosition=bottom;verticalAlign=top;align=center;html=1;fontSize=12;fontStyle=0;aspect=fixed;shape=mxgraph.aws4.resourceIcon;resIcon=mxgraph.aws4.simple_email_service;" parent="1" vertex="1">
          <mxGeometry x="-78" y="880" width="78" height="78" as="geometry" />
        </mxCell>
        <mxCell id="E5Igh1rfIVBk4vipuDSx-56" value="" style="ellipse;whiteSpace=wrap;html=1;aspect=fixed;fillColor=#6a00ff;fontColor=#ffffff;strokeColor=#3700CC;" parent="1" vertex="1">
          <mxGeometry x="710" y="272" width="20" height="20" as="geometry" />
        </mxCell>
        <mxCell id="E5Igh1rfIVBk4vipuDSx-57" value="" style="ellipse;whiteSpace=wrap;html=1;aspect=fixed;fillColor=#6a00ff;fontColor=#ffffff;strokeColor=#3700CC;" parent="1" vertex="1">
          <mxGeometry x="710" y="470" width="20" height="20" as="geometry" />
        </mxCell>
        <mxCell id="E5Igh1rfIVBk4vipuDSx-59" value="" style="ellipse;whiteSpace=wrap;html=1;aspect=fixed;fillColor=#f0a30a;fontColor=#000000;strokeColor=#BD7000;" parent="1" vertex="1">
          <mxGeometry x="950" y="272" width="20" height="20" as="geometry" />
        </mxCell>
        <mxCell id="E5Igh1rfIVBk4vipuDSx-60" value="" style="ellipse;whiteSpace=wrap;html=1;aspect=fixed;fillColor=#f0a30a;fontColor=#000000;strokeColor=#BD7000;" parent="1" vertex="1">
          <mxGeometry x="950" y="470" width="20" height="20" as="geometry" />
        </mxCell>
        <mxCell id="E5Igh1rfIVBk4vipuDSx-66" value="" style="ellipse;whiteSpace=wrap;html=1;aspect=fixed;fillColor=#f0a30a;fontColor=#000000;strokeColor=#BD7000;" parent="1" vertex="1">
          <mxGeometry x="1110" y="271" width="20" height="20" as="geometry" />
        </mxCell>
        <mxCell id="E5Igh1rfIVBk4vipuDSx-68" value="" style="ellipse;whiteSpace=wrap;html=1;aspect=fixed;fillColor=#f0a30a;fontColor=#000000;strokeColor=#BD7000;" parent="1" vertex="1">
          <mxGeometry x="1270" y="272" width="20" height="20" as="geometry" />
        </mxCell>
        <mxCell id="E5Igh1rfIVBk4vipuDSx-69" value="" style="ellipse;whiteSpace=wrap;html=1;aspect=fixed;fillColor=#f0a30a;fontColor=#000000;strokeColor=#BD7000;" parent="1" vertex="1">
          <mxGeometry x="1110" y="669" width="20" height="20" as="geometry" />
        </mxCell>
        <mxCell id="E5Igh1rfIVBk4vipuDSx-73" value="" style="ellipse;whiteSpace=wrap;html=1;aspect=fixed;fillColor=#f0a30a;fontColor=#000000;strokeColor=#BD7000;" parent="1" vertex="1">
          <mxGeometry x="1110" y="469" width="20" height="20" as="geometry" />
        </mxCell>
        <mxCell id="E5Igh1rfIVBk4vipuDSx-74" value="" style="ellipse;whiteSpace=wrap;html=1;aspect=fixed;fillColor=#f0a30a;fontColor=#000000;strokeColor=#BD7000;" parent="1" vertex="1">
          <mxGeometry x="1270" y="470" width="20" height="20" as="geometry" />
        </mxCell>
        <mxCell id="E5Igh1rfIVBk4vipuDSx-82" style="edgeStyle=orthogonalEdgeStyle;rounded=0;orthogonalLoop=1;jettySize=auto;html=1;exitX=1;exitY=0.5;exitDx=0;exitDy=0;entryX=0.5;entryY=1;entryDx=0;entryDy=0;entryPerimeter=0;fillColor=#f0a30a;strokeColor=#BD7000;" parent="1" source="E5Igh1rfIVBk4vipuDSx-81" target="E5Igh1rfIVBk4vipuDSx-22" edge="1">
          <mxGeometry relative="1" as="geometry">
            <Array as="points">
              <mxPoint x="1079" y="1095" />
            </Array>
          </mxGeometry>
        </mxCell>
        <mxCell id="E5Igh1rfIVBk4vipuDSx-84" value="Metering Records" style="edgeLabel;html=1;align=center;verticalAlign=middle;resizable=0;points=[];" parent="E5Igh1rfIVBk4vipuDSx-82" vertex="1" connectable="0">
          <mxGeometry x="-0.2207" y="2" relative="1" as="geometry">
            <mxPoint x="-33" y="-13" as="offset" />
          </mxGeometry>
        </mxCell>
        <mxCell id="E5Igh1rfIVBk4vipuDSx-87" style="edgeStyle=orthogonalEdgeStyle;rounded=0;orthogonalLoop=1;jettySize=auto;html=1;exitX=0;exitY=0.5;exitDx=0;exitDy=0;entryX=0;entryY=1;entryDx=0;entryDy=0;entryPerimeter=0;" parent="1" source="E5Igh1rfIVBk4vipuDSx-81" target="E5Igh1rfIVBk4vipuDSx-1" edge="1">
          <mxGeometry relative="1" as="geometry">
            <Array as="points">
              <mxPoint x="-350" y="1095" />
            </Array>
          </mxGeometry>
        </mxCell>
        <mxCell id="E5Igh1rfIVBk4vipuDSx-88" value="Give/revoke/update access" style="edgeLabel;html=1;align=center;verticalAlign=middle;resizable=0;points=[];" parent="E5Igh1rfIVBk4vipuDSx-87" vertex="1" connectable="0">
          <mxGeometry x="-0.4453" y="2" relative="1" as="geometry">
            <mxPoint y="-17" as="offset" />
          </mxGeometry>
        </mxCell>
        <mxCell id="E5Igh1rfIVBk4vipuDSx-96" style="edgeStyle=orthogonalEdgeStyle;rounded=0;orthogonalLoop=1;jettySize=auto;html=1;entryX=1;entryY=0.75;entryDx=0;entryDy=0;entryPerimeter=0;exitX=0.5;exitY=0;exitDx=0;exitDy=0;" parent="1" source="E5Igh1rfIVBk4vipuDSx-81" target="E5Igh1rfIVBk4vipuDSx-11" edge="1">
          <mxGeometry relative="1" as="geometry" />
        </mxCell>
        <mxCell id="E5Igh1rfIVBk4vipuDSx-97" value="Managing access" style="edgeLabel;html=1;align=center;verticalAlign=middle;resizable=0;points=[];" parent="E5Igh1rfIVBk4vipuDSx-96" vertex="1" connectable="0">
          <mxGeometry x="0.355" relative="1" as="geometry">
            <mxPoint x="-5" y="-29" as="offset" />
          </mxGeometry>
        </mxCell>
        <mxCell id="E5Igh1rfIVBk4vipuDSx-81" value="SaaS Application" style="image;aspect=fixed;perimeter=ellipsePerimeter;html=1;align=center;shadow=0;dashed=0;fontColor=#000000;labelBackgroundColor=default;fontSize=12;spacingTop=3;image=img/lib/ibm/applications/saas_applications.svg;" parent="1" vertex="1">
          <mxGeometry x="524" y="1020" width="150" height="150" as="geometry" />
        </mxCell>
        <mxCell id="E5Igh1rfIVBk4vipuDSx-91" value="AWS&lt;br&gt;Marketplace" style="sketch=0;points=[[0,0,0],[0.25,0,0],[0.5,0,0],[0.75,0,0],[1,0,0],[0,1,0],[0.25,1,0],[0.5,1,0],[0.75,1,0],[1,1,0],[0,0.25,0],[0,0.5,0],[0,0.75,0],[1,0.25,0],[1,0.5,0],[1,0.75,0]];gradientDirection=north;outlineConnect=0;fontColor=#232F3E;gradientColor=#505863;fillColor=#1E262E;strokeColor=#ffffff;dashed=0;verticalLabelPosition=middle;verticalAlign=middle;align=left;html=1;fontSize=12;fontStyle=0;aspect=fixed;shape=mxgraph.aws4.resourceIcon;resIcon=mxgraph.aws4.marketplace;labelPosition=right;" parent="1" vertex="1">
          <mxGeometry x="-220" y="40" width="40" height="40" as="geometry" />
        </mxCell>
        <mxCell id="E5Igh1rfIVBk4vipuDSx-93" value="" style="edgeStyle=orthogonalEdgeStyle;rounded=0;orthogonalLoop=1;jettySize=auto;html=1;entryX=0;entryY=0.25;entryDx=0;entryDy=0;exitX=1;exitY=1;exitDx=0;exitDy=0;exitPerimeter=0;entryPerimeter=0;" parent="1" source="E5Igh1rfIVBk4vipuDSx-1" target="E5Igh1rfIVBk4vipuDSx-13" edge="1">
          <mxGeometry relative="1" as="geometry">
            <mxPoint x="-106" y="144" as="sourcePoint" />
            <mxPoint x="80" y="299" as="targetPoint" />
            <Array as="points">
              <mxPoint x="-303" y="300" />
              <mxPoint x="-246" y="300" />
            </Array>
          </mxGeometry>
        </mxCell>
        <mxCell id="E5Igh1rfIVBk4vipuDSx-94" value="1.3 Enter registration &lt;br&gt;details" style="edgeLabel;html=1;align=center;verticalAlign=middle;resizable=0;points=[];" parent="E5Igh1rfIVBk4vipuDSx-93" vertex="1" connectable="0">
          <mxGeometry x="-0.2157" y="4" relative="1" as="geometry">
            <mxPoint x="-34" y="-75" as="offset" />
          </mxGeometry>
        </mxCell>
        <mxCell id="E5Igh1rfIVBk4vipuDSx-95" value="AWS Seller&lt;br&gt;Account" style="outlineConnect=0;dashed=0;verticalLabelPosition=middle;verticalAlign=middle;align=left;html=1;shape=mxgraph.aws3.cloud_2;fillColor=#F58534;gradientColor=none;labelPosition=right;" parent="1" vertex="1">
          <mxGeometry x="-220" y="240" width="40" height="40" as="geometry" />
        </mxCell>
        <mxCell id="E5Igh1rfIVBk4vipuDSx-99" value="Registration Page" style="text;html=1;strokeColor=none;fillColor=none;align=center;verticalAlign=middle;whiteSpace=wrap;rounded=0;" parent="1" vertex="1">
          <mxGeometry x="-20" y="605" width="100" height="30" as="geometry" />
        </mxCell>
      </root>
    </mxGraphModel>
  </diagram>
  <diagram id="m1NflzgkkBPoZRTsuyXo" name="Overview">
    <mxGraphModel dx="954" dy="596" grid="1" gridSize="10" guides="1" tooltips="1" connect="1" arrows="1" fold="1" page="1" pageScale="1" pageWidth="1169" pageHeight="827" math="0" shadow="0">
      <root>
        <mxCell id="0" />
        <mxCell id="1" parent="0" />
        <mxCell id="TShzsiII6dkpMDox8MFM-9" value="AWS Cloud" style="sketch=0;outlineConnect=0;gradientColor=none;html=1;whiteSpace=wrap;fontSize=12;fontStyle=0;shape=mxgraph.aws4.group;grIcon=mxgraph.aws4.group_aws_cloud;strokeColor=#AAB7B8;fillColor=none;verticalAlign=top;align=left;spacingLeft=30;fontColor=#AAB7B8;dashed=0;" vertex="1" parent="1">
          <mxGeometry x="160" y="50" width="480" height="470" as="geometry" />
        </mxCell>
        <mxCell id="TShzsiII6dkpMDox8MFM-1" value="AWS Marketplace" style="sketch=0;points=[[0,0,0],[0.25,0,0],[0.5,0,0],[0.75,0,0],[1,0,0],[0,1,0],[0.25,1,0],[0.5,1,0],[0.75,1,0],[1,1,0],[0,0.25,0],[0,0.5,0],[0,0.75,0],[1,0.25,0],[1,0.5,0],[1,0.75,0]];gradientDirection=north;outlineConnect=0;fontColor=#232F3E;gradientColor=#505863;fillColor=#1E262E;strokeColor=#ffffff;dashed=0;verticalLabelPosition=bottom;verticalAlign=top;align=center;html=1;fontSize=12;fontStyle=0;aspect=fixed;shape=mxgraph.aws4.resourceIcon;resIcon=mxgraph.aws4.marketplace;" vertex="1" parent="1">
          <mxGeometry x="200" y="120" width="78" height="78" as="geometry" />
        </mxCell>
        <mxCell id="TShzsiII6dkpMDox8MFM-2" value="Amazon Cloudfront" style="sketch=0;points=[[0,0,0],[0.25,0,0],[0.5,0,0],[0.75,0,0],[1,0,0],[0,1,0],[0.25,1,0],[0.5,1,0],[0.75,1,0],[1,1,0],[0,0.25,0],[0,0.5,0],[0,0.75,0],[1,0.25,0],[1,0.5,0],[1,0.75,0]];outlineConnect=0;fontColor=#232F3E;gradientColor=#945DF2;gradientDirection=north;fillColor=#5A30B5;strokeColor=#ffffff;dashed=0;verticalLabelPosition=bottom;verticalAlign=top;align=center;html=1;fontSize=12;fontStyle=0;aspect=fixed;shape=mxgraph.aws4.resourceIcon;resIcon=mxgraph.aws4.cloudfront;" vertex="1" parent="1">
          <mxGeometry x="360" y="120" width="78" height="78" as="geometry" />
        </mxCell>
        <mxCell id="TShzsiII6dkpMDox8MFM-3" value="Amazon S3" style="sketch=0;points=[[0,0,0],[0.25,0,0],[0.5,0,0],[0.75,0,0],[1,0,0],[0,1,0],[0.25,1,0],[0.5,1,0],[0.75,1,0],[1,1,0],[0,0.25,0],[0,0.5,0],[0,0.75,0],[1,0.25,0],[1,0.5,0],[1,0.75,0]];outlineConnect=0;fontColor=#232F3E;gradientColor=#60A337;gradientDirection=north;fillColor=#277116;strokeColor=#ffffff;dashed=0;verticalLabelPosition=bottom;verticalAlign=top;align=center;html=1;fontSize=12;fontStyle=0;aspect=fixed;shape=mxgraph.aws4.resourceIcon;resIcon=mxgraph.aws4.s3;" vertex="1" parent="1">
          <mxGeometry x="520" y="120" width="78" height="78" as="geometry" />
        </mxCell>
        <mxCell id="TShzsiII6dkpMDox8MFM-4" value="Amazon DynamoDb" style="sketch=0;points=[[0,0,0],[0.25,0,0],[0.5,0,0],[0.75,0,0],[1,0,0],[0,1,0],[0.25,1,0],[0.5,1,0],[0.75,1,0],[1,1,0],[0,0.25,0],[0,0.5,0],[0,0.75,0],[1,0.25,0],[1,0.5,0],[1,0.75,0]];outlineConnect=0;fontColor=#232F3E;gradientColor=#4D72F3;gradientDirection=north;fillColor=#3334B9;strokeColor=#ffffff;dashed=0;verticalLabelPosition=bottom;verticalAlign=top;align=center;html=1;fontSize=12;fontStyle=0;aspect=fixed;shape=mxgraph.aws4.resourceIcon;resIcon=mxgraph.aws4.dynamodb;" vertex="1" parent="1">
          <mxGeometry x="520" y="400" width="78" height="78" as="geometry" />
        </mxCell>
        <mxCell id="TShzsiII6dkpMDox8MFM-5" value="AWS Lambda" style="sketch=0;points=[[0,0,0],[0.25,0,0],[0.5,0,0],[0.75,0,0],[1,0,0],[0,1,0],[0.25,1,0],[0.5,1,0],[0.75,1,0],[1,1,0],[0,0.25,0],[0,0.5,0],[0,0.75,0],[1,0.25,0],[1,0.5,0],[1,0.75,0]];outlineConnect=0;fontColor=#232F3E;gradientColor=#F78E04;gradientDirection=north;fillColor=#D05C17;strokeColor=#ffffff;dashed=0;verticalLabelPosition=bottom;verticalAlign=top;align=center;html=1;fontSize=12;fontStyle=0;aspect=fixed;shape=mxgraph.aws4.resourceIcon;resIcon=mxgraph.aws4.lambda;" vertex="1" parent="1">
          <mxGeometry x="360" y="400" width="78" height="78" as="geometry" />
        </mxCell>
        <mxCell id="TShzsiII6dkpMDox8MFM-6" value="Amazon API Gateway" style="sketch=0;points=[[0,0,0],[0.25,0,0],[0.5,0,0],[0.75,0,0],[1,0,0],[0,1,0],[0.25,1,0],[0.5,1,0],[0.75,1,0],[1,1,0],[0,0.25,0],[0,0.5,0],[0,0.75,0],[1,0.25,0],[1,0.5,0],[1,0.75,0]];outlineConnect=0;fontColor=#232F3E;gradientColor=#FF4F8B;gradientDirection=north;fillColor=#BC1356;strokeColor=#ffffff;dashed=0;verticalLabelPosition=bottom;verticalAlign=top;align=center;html=1;fontSize=12;fontStyle=0;aspect=fixed;shape=mxgraph.aws4.resourceIcon;resIcon=mxgraph.aws4.api_gateway;" vertex="1" parent="1">
          <mxGeometry x="200" y="400" width="78" height="78" as="geometry" />
        </mxCell>
        <mxCell id="TShzsiII6dkpMDox8MFM-7" value="Registration Page" style="sketch=0;pointerEvents=1;shadow=0;dashed=0;html=1;strokeColor=none;fillColor=#505050;labelPosition=center;verticalLabelPosition=bottom;verticalAlign=top;outlineConnect=0;align=center;shape=mxgraph.office.concepts.web_page;" vertex="1" parent="1">
          <mxGeometry x="220" y="280" width="50" height="54" as="geometry" />
        </mxCell>
        <mxCell id="TShzsiII6dkpMDox8MFM-8" value="Customers" style="sketch=0;outlineConnect=0;fontColor=#232F3E;gradientColor=none;fillColor=#232F3D;strokeColor=none;dashed=0;verticalLabelPosition=bottom;verticalAlign=top;align=center;html=1;fontSize=12;fontStyle=0;aspect=fixed;pointerEvents=1;shape=mxgraph.aws4.users;" vertex="1" parent="1">
          <mxGeometry x="40" y="120" width="78" height="78" as="geometry" />
        </mxCell>
        <mxCell id="TShzsiII6dkpMDox8MFM-10" value="&lt;font color=&quot;#000000&quot;&gt;SaaS Applications&lt;/font&gt;" style="image;aspect=fixed;perimeter=ellipsePerimeter;html=1;align=center;shadow=0;dashed=0;fontColor=#4277BB;labelBackgroundColor=default;fontSize=12;spacingTop=3;image=img/lib/ibm/applications/saas_applications.svg;" vertex="1" parent="1">
          <mxGeometry x="690" y="129" width="60" height="60" as="geometry" />
        </mxCell>
      </root>
    </mxGraphModel>
  </diagram>
</mxfile>
